<svg xmlns="http://www.w3.org/2000/svg" width="1024" height="1024" viewBox="0 0 1024 1024"><path d="M480 872L376 768l-24 24 144 144 144-144-24-24-104 104V512h-32v360zm-32-168H224.09C153.534 704 96 646.692 96 576c0-60.652 42.388-111.624 99.232-124.73C193.11 439.835 192 428.047 192 416c0-106.04 85.96-192 192-192 83.694 0 154.88 53.55 181.166 128.257C589.946 332.09 621.56 320 656 320c75.467 0 137.375 58.053 143.502 131.938C854.864 466.018 896 516.224 896 576c0 70.55-57.348 128-128.09 128H544v32h224.018C856.374 736 928 664.186 928 576c0-67.085-41.175-124.528-99.748-148.304C811.522 347.912 740.757 288 656 288c-27.613 0-53.74 6.36-76.998 17.692C540.518 237.806 467.608 192 384 192c-123.712 0-224 100.288-224 224 0 4.42.128 8.812.38 13.17C103.67 453.81 64 510.37 64 576c0 88.366 71.44 160 159.982 160H448v-32z"/></svg>