<svg xmlns="http://www.w3.org/2000/svg" width="1024" height="1024" viewBox="0 0 1024 1024"><path d="M227.232 515.27C170.387 528.375 128 579.347 128 640c0 70.692 57.534 128 128.09 128h543.82C870.652 768 928 710.55 928 640c0-60.078-41.554-110.49-97.34-124.273.884-6.45 1.34-13.035 1.34-19.727 0-79.53-64.47-144-144-144-39.217 0-74.773 15.677-100.742 41.107C555.548 330.733 490.764 288 416 288c-106.04 0-192 85.96-192 192 0 12.048 1.11 23.836 3.232 35.27zm636.747-22.005C920.562 517.93 960 574.347 960 640c0 88.186-71.626 160-159.982 160H255.982C167.44 800 96 728.366 96 640c0-65.628 39.67-122.19 96.38-146.83-.252-4.358-.38-8.75-.38-13.17 0-123.712 100.288-224 224-224 73.534 0 138.793 35.433 179.633 90.157C622.483 329.57 654.123 320 688 320c96.29 0 174.518 77.324 175.98 173.265zM432.11 576c-8.897 0-16.11 7.422-16.11 16 0 8.837 7.453 16 16.11 16h191.78c8.898 0 16.11-7.422 16.11-16 0-8.837-7.452-16-16.11-16H432.11z"/></svg>