<svg xmlns="http://www.w3.org/2000/svg" width="1024" height="1024" viewBox="0 0 1024 1024"><path d="M480 512L376 616l-24-24 144-144 144 144-24 24-104-104v352h-32V512zm-32 160H224.09C153.534 672 96 614.692 96 544c0-60.652 42.388-111.624 99.232-124.73C193.11 407.835 192 396.047 192 384c0-106.04 85.96-192 192-192 83.694 0 154.88 53.55 181.166 128.257C589.946 300.09 621.56 288 656 288c75.467 0 137.375 58.053 143.502 131.938C854.864 434.018 896 484.224 896 544c0 70.55-57.348 128-128.09 128H544v32h224.018C856.374 704 928 632.186 928 544c0-67.085-41.175-124.528-99.748-148.304C811.522 315.912 740.757 256 656 256c-27.613 0-53.74 6.36-76.998 17.692C540.518 205.806 467.608 160 384 160c-123.712 0-224 100.288-224 224 0 4.42.128 8.812.38 13.17C103.67 421.81 64 478.37 64 544c0 88.366 71.44 160 159.982 160H448v-32z"/></svg>