<svg width="438" height="206" viewBox="0 0 438 206" xmlns="http://www.w3.org/2000/svg"><g transform="translate(1 1)" fill="none" fill-rule="evenodd"><circle stroke="#FFD54A" cx="338" cy="99" r="20"/><circle stroke="#FFD67E" opacity=".374" cx="188.5" cy="49.5" r="8.5"/><circle stroke="#FFD67E" opacity=".825" cx="325" cy="6" r="5"/><circle stroke="#FFD54A" opacity=".842" cx="379" cy="35" r="5"/><circle stroke="#FFD67E" opacity=".877" cx="281.5" cy="42.5" r="11.5"/><circle stroke="#FFD67E" opacity=".744" cx="241.5" cy="152.5" r="11.5"/><circle stroke="#FFD67E" opacity=".655" cx="128.5" cy="138.5" r="8.5"/><circle stroke="#FFD67E" opacity=".655" cx="118.5" cy="68.5" r="8.5"/><circle stroke="#FFD67E" opacity=".655" cx="58" cy="108" r="18"/><circle stroke="#FFD67E" opacity=".655" cx="18" cy="18" r="18"/><circle stroke="#FFD67E" opacity=".655" cx="418" cy="56" r="18"/><path d="M70.64 95.701l40.348-22.451M383.5 37.5l19 10" stroke="#FBC55E"/><path d="M127.074 68.918l190.612 28.934M337.074 118.918L360.5 204.5" stroke="#FACA42"/><path d="M349.17 82.5l27.242-42.934" stroke="#FBD249"/><path d="M113.408 61.766L33.5 26.5" stroke="#F6B22E"/><path d="M119.367 77.549l7.354 52.812" stroke="#F9BF39"/></g></svg>