<svg class="io-Masthead_LogoSvg" xmlns="http://www.w3.org/2000/svg" width="47" height="42" viewBox="0 0 47 42" xmlns:xlink="http://www.w3.org/1999/xlink">
    <defs>
        <path id="a" d="M0,0 L47,0 L47,17.8999607 L47,17.8999607 C47,18.9295621 46.2183221,19.7909314 45.1935535,19.8905729 L23.4990234,22 L1.8064306,19.8905859 L1.8064306,19.8905859 C0.781668851,19.7909369 -1.20617856e-15,18.9295706 -1.33226763e-15,17.8999753 L0,0 Z"
        />
    </defs>
    <g fill="none" fill-rule="evenodd">
        <path fill="#545454" d="M0,22 L47,22 L47,38.0916497 L47,38.0916497 C47,39.1279704 46.2083965,39.9926332 45.1761009,40.0838817 L23.4990234,42 L1.8238846,40.0838938 L1.8238846,40.0838938 C0.791595194,39.9926383 5.71001207e-16,39.1279782 4.4408921e-16,38.0916631 L0,22 Z"
        />
        <path fill="#FFF" d="M13.344,25.252 C14.9653414,25.252 16.0959968,25.6706625 16.736,26.508 C17.3760032,27.3453375 17.696,28.8359893 17.696,30.98 C17.696,33.1240107 17.3760032,34.6146625 16.736,35.452 C16.0959968,36.2893375 14.9653414,36.708 13.344,36.708 C11.7226586,36.708 10.5893366,36.2893375 9.944,35.452 C9.29866344,34.6146625 8.976,33.1240107 8.976,30.98 C8.976,28.8359893 9.29866344,27.3453375 9.944,26.508 C10.5893366,25.6706625 11.7226586,25.252 13.344,25.252 Z M13.344,26.516 C12.2559946,26.516 11.5040021,26.8386634 11.088,27.484 C10.6719979,28.1293366 10.464,29.2946582 10.464,30.98 C10.464,32.6653418 10.6719979,33.8306634 11.088,34.476 C11.5040021,35.1213366 12.2559946,35.444 13.344,35.444 C14.4320054,35.444 15.1839979,35.1213366 15.6,34.476 C16.0160021,33.8306634 16.224,32.6653418 16.224,30.98 C16.224,29.2946582 16.0160021,28.1293366 15.6,27.484 C15.1839979,26.8386634 14.4320054,26.516 13.344,26.516 Z M28.032,25.46 L28.032,32.276 C28.032,33.8866747 27.7333363,35.0279966 27.136,35.7 C26.5386637,36.3720034 25.5200072,36.708 24.08,36.708 C22.5866592,36.708 21.5333364,36.3720034 20.92,35.7 C20.3066636,35.0279966 20,33.8866747 20,32.276 L20,25.46 L21.408,25.46 L21.408,32.276 C21.408,33.4600059 21.5999981,34.2839977 21.984,34.748 C22.3680019,35.2120023 23.0453285,35.444 24.016,35.444 C24.9760048,35.444 25.6506647,35.2120023 26.04,34.748 C26.4293353,34.2839977 26.624,33.4600059 26.624,32.276 L26.624,25.46 L28.032,25.46 Z M38.256,26.708 L34.688,26.708 L34.688,36.5 L33.28,36.5 L33.28,26.708 L29.728,26.708 L29.728,25.46 L38.256,25.46 L38.256,26.708 Z"
        />
        <g transform="matrix(1 0 0 -1 0 22)">
            <use fill="#F8F8F8" xlink:href="#a" />
            <path stroke="#545454" d="M0.5,0.5 L0.5,17.8999753 C0.5,18.6721718 1.08625164,19.3181965 1.85482295,19.3929333 L23.4506351,21.5023469 L45.1451651,19.3929198 C45.9137416,19.3181887 46.5,18.6721618 46.5,17.8999607 L46.5,0.5 L0.5,0.5 Z"
            />
        </g>
        <path fill="#585858" d="M18.8,17 L17.392,17 L17.392,5.96 L18.8,5.96 L18.8,17 Z M30.08,5.96 L30.08,16.44 C30.08,16.8133352 29.8986685,17 29.536,17 L28.16,17 C27.8719986,17 27.6640006,16.8506682 27.536,16.552 L23.808,8.728 C23.4453315,7.93866272 23.2373336,7.45333424 23.184,7.272 L22.928,7.272 C22.9706669,7.6986688 22.992,8.18399728 22.992,8.728 L22.992,17 L21.584,17 L21.584,6.52 C21.584,6.1466648 21.7706648,5.96 22.144,5.96 L23.472,5.96 C23.7600014,5.96 23.9679994,6.10933184 24.096,6.408 L27.712,14.04 C27.978668,14.5626693 28.2293322,15.0959973 28.464,15.64 L28.736,15.64 C28.7039998,15.0639971 28.688,14.5040027 28.688,13.96 L28.688,5.96 L30.08,5.96 Z"
        />
    </g>
</svg>