<svg xmlns="http://www.w3.org/2000/svg" width="1024" height="1024" viewBox="0 0 1024 1024"><path fill="#de8e0e" d="M736 224h128v32h-64v607.78c0 53.468-42.982 96.22-96.004 96.22H352.004C298.687 960 256 916.92 256 863.78V256h-64v-32h192v-63.844C384 124.606 412.616 96 447.917 96h160.167C643.334 96 672 124.724 672 160.156V224h64zm-448 32v608.174c0 35.25 28.59 63.826 63.74 63.826h352.52c35.202 0 63.74-28.875 63.74-63.826V256H288zm96 64v544h32V320h-32zm128 0v544h32V320h-32zm128 0v544h32V320h-32zM448.094 128C430.37 128 416 142.165 416 159.967V224h224v-64.033C640 142.312 625.988 128 607.906 128H448.093z"/></svg>