<svg xmlns="http://www.w3.org/2000/svg" width="1216" height="1024" viewBox="0 0 1216 1024"><path d="M1040.288 240c8.832 0 16-7.168 16-16v-53.28c0-28.896-23.52-52.416-52.416-52.416h-85.984l-19.616-57.888c-2.752-8.16-11.52-12.704-19.808-10.176L412.768 191.808c-8.448 2.592-13.216 11.52-10.656 19.968 2.112 6.912 8.448 11.328 15.328 11.328 1.536 0 3.104-.224 4.672-.672L872.96 85.344l42.976 126.88c2.848 8.384 12 12.928 20.288 10.016 8.384-2.816 12.864-11.936 10.016-20.288l-17.504-51.68h75.168c11.264 0 20.416 9.152 20.416 20.416V224c-.032 8.832 7.136 16 15.968 16zM1168 480c-8.832 0-16 7.168-16 16s7.168 16 16 16c11.232 0 16 4.768 16 16v192c0 11.232-4.768 16-16 16H912c-11.232 0-16-4.768-16-16V560c0-11.232 4.768-16 16-16h192c8.832 0 16-7.168 16-16V336c0-29.152-18.848-48-48-48H96c-39.456 0-64-24.544-64-64s24.544-64 64-64h162.432L161.6 191.936c-8.384 2.752-12.96 11.808-10.208 20.192 2.208 6.72 8.48 10.976 15.2 10.976 1.664 0 3.328-.256 5.024-.8L751.424 31.168c8.384-2.784 12.96-11.808 10.176-20.224-2.752-8.384-11.808-12.96-20.224-10.176l-387.2 127.68c-.736-.128-1.408-.448-2.176-.448H96c-57.408 0-96 38.592-96 96v704c0 57.408 38.592 96 96 96h976c29.152 0 48-18.848 48-48V816c0-8.832-7.168-16-16-16s-16 7.168-16 16v160c0 11.232-4.768 16-16 16H96c-39.456 0-64-24.544-64-64V297.984C48.416 311.84 70.144 320 96 320h976c11.232 0 16 4.768 16 16v176H912c-29.152 0-48 18.848-48 48v160c0 29.152 18.848 48 48 48h256c29.152 0 48-18.848 48-48V528c0-29.152-18.848-48-48-48zM992 640c0 17.673 14.327 32 32 32s32-14.327 32-32c0-17.673-14.327-32-32-32s-32 14.327-32 32z"/></svg>